<svg width="267" height="65" viewBox="0 0 267 65" fill="none" xmlns="http://www.w3.org/2000/svg">
<path d="M190.014 58.6334L191.083 57.3191C191.537 56.7611 192.315 56.5972 192.928 56.9567C193.89 57.5175 194.92 57.808 195.989 57.808C196.917 57.808 197.416 57.4772 197.416 56.8905C197.416 56.3584 197.005 56.0651 195.311 55.6595C192.652 55.0354 190.601 54.2646 190.601 51.5813C190.601 49.1941 192.44 47.4656 195.436 47.4656C197.558 47.4656 199.218 48.0523 200.574 49.174L199.63 50.5487C199.21 51.1613 198.421 51.3598 197.763 51.0377C196.945 50.635 196.111 50.4251 195.348 50.4251C194.508 50.4251 194.1 50.7932 194.1 51.2879C194.1 51.8746 194.528 52.1335 196.259 52.5361C199.13 53.1804 200.915 54.1352 200.915 56.577C200.915 59.2029 198.9 60.7646 195.867 60.7646C193.654 60.7646 191.552 60.0485 190.017 58.6334" fill="#4D4D4D"/>
<path d="M202.092 54.7868V47.4656H204.149C204.981 47.4656 205.657 48.1598 205.657 49.0173V54.7109C205.657 56.5923 206.581 57.4877 207.991 57.4877C209.401 57.4877 210.325 56.6302 210.325 54.8043V49.0173C210.325 48.1598 211.001 47.4656 211.833 47.4656H213.89V54.6934C213.89 58.9024 211.557 60.7487 207.957 60.7487C204.357 60.7487 202.095 58.8674 202.095 54.7868" fill="#4D4D4D"/>
<path d="M218.662 47.4656H215.068V60.7479H218.662V47.4656Z" fill="#4D4D4D"/>
<path d="M223.584 50.6929H219.84V49.048C219.84 48.1735 220.506 47.4656 221.326 47.4656H230.79V50.6959H227.045V59.1822C227.045 60.0567 226.379 60.7646 225.559 60.7646H223.584V50.6959V50.6929Z" fill="#303547"/>
<path d="M240.608 57.6295H235.389V55.5205H240.821L240.863 52.6145H235.389V50.6007H240.517C241.337 50.6007 242.003 49.8928 242.003 49.0183V47.4656H231.965V60.7646H242.094V59.2119C242.094 58.3374 241.428 57.6295 240.608 57.6295Z" fill="#303547"/>
<path d="M243.271 58.6334L244.341 57.3191C244.795 56.7611 245.573 56.5972 246.185 56.9567C247.147 57.5175 248.177 57.808 249.247 57.808C250.175 57.808 250.674 57.4772 250.674 56.8905C250.674 56.3584 250.263 56.0651 248.569 55.6595C245.91 55.0354 243.859 54.2646 243.859 51.5813C243.859 49.1941 245.697 47.4656 248.694 47.4656C250.816 47.4656 252.476 48.0523 253.832 49.174L252.887 50.5487C252.465 51.1613 251.679 51.3598 251.02 51.0377C250.203 50.635 249.369 50.4251 248.606 50.4251C247.766 50.4251 247.357 50.7932 247.357 51.2879C247.357 51.8746 247.786 52.1335 249.517 52.5361C252.388 53.1804 254.173 54.1352 254.173 56.577C254.173 59.2029 252.158 60.7646 249.125 60.7646C246.912 60.7646 244.809 60.0485 243.274 58.6334" fill="#303547"/>
<path d="M259.094 50.6929H255.35V49.048C255.35 48.1735 256.016 47.4656 256.836 47.4656H266.299V50.6959H262.555V59.1822C262.555 60.0567 261.888 60.7646 261.069 60.7646H259.094V50.6959V50.6929Z" fill="#303547"/>
<path d="M92.0146 55.8953V60.4656H89.9316V47.8621H93.7549C95.2021 47.8621 96.3242 48.199 97.1211 48.8728C97.918 49.5466 98.3164 50.4958 98.3164 51.7205C98.3164 52.9451 97.9004 53.947 97.0684 54.7263C96.2363 55.5056 95.1113 55.8953 93.6934 55.8953H92.0146ZM92.0146 49.5847V54.1902H93.3682C94.2646 54.1902 94.9473 53.9822 95.416 53.5662C95.8848 53.1501 96.1191 52.5642 96.1191 51.8083C96.1191 50.3259 95.2578 49.5847 93.5352 49.5847H92.0146ZM103.607 60.6765C102.219 60.6765 101.108 60.2576 100.276 59.4197C99.4502 58.5759 99.0371 57.4597 99.0371 56.071C99.0371 54.5593 99.4678 53.3787 100.329 52.5291C101.196 51.6794 102.362 51.2546 103.827 51.2546C105.233 51.2546 106.329 51.6677 107.114 52.4939C107.899 53.3201 108.292 54.4656 108.292 55.9304C108.292 57.366 107.867 58.5173 107.018 59.3845C106.174 60.2458 105.037 60.6765 103.607 60.6765ZM103.704 52.8806C102.907 52.8806 102.277 53.1589 101.814 53.7156C101.352 54.2722 101.12 55.0398 101.12 56.0183C101.12 56.9617 101.354 57.7058 101.823 58.2507C102.292 58.7898 102.919 59.0593 103.704 59.0593C104.507 59.0593 105.122 58.7927 105.55 58.2595C105.983 57.7263 106.2 56.9675 106.2 55.9832C106.2 54.9929 105.983 54.2283 105.55 53.6892C105.122 53.1501 104.507 52.8806 103.704 52.8806ZM122.478 51.4656L119.823 60.4656H117.688L116.053 54.366C115.988 54.1316 115.947 53.8679 115.93 53.575H115.895C115.883 53.7742 115.83 54.032 115.736 54.3484L113.961 60.4656H111.869L109.224 51.4656H111.333L112.968 57.9519C113.021 58.1453 113.056 58.4031 113.073 58.7253H113.135C113.152 58.4792 113.199 58.2156 113.275 57.9343L115.095 51.4656H117.011L118.628 57.9783C118.681 58.1833 118.719 58.4412 118.742 58.7517H118.804C118.815 58.5349 118.859 58.2771 118.936 57.9783L120.535 51.4656H122.478ZM131.53 56.5193H125.396C125.419 57.3513 125.674 57.9929 126.16 58.4441C126.652 58.8953 127.326 59.1208 128.182 59.1208C129.143 59.1208 130.024 58.8337 130.827 58.2595V59.9031C130.007 60.4187 128.923 60.6765 127.575 60.6765C126.251 60.6765 125.211 60.2693 124.455 59.4548C123.705 58.6345 123.33 57.4832 123.33 56.0007C123.33 54.6003 123.743 53.4607 124.569 52.5818C125.401 51.697 126.433 51.2546 127.663 51.2546C128.894 51.2546 129.846 51.6501 130.52 52.4412C131.193 53.2322 131.53 54.3308 131.53 55.7371V56.5193ZM129.562 55.0779C129.556 54.3455 129.383 53.7771 129.043 53.3728C128.703 52.9626 128.234 52.7576 127.637 52.7576C127.051 52.7576 126.553 52.9714 126.143 53.3992C125.738 53.8269 125.489 54.3865 125.396 55.0779H129.562ZM138.693 53.408C138.447 53.2146 138.093 53.1179 137.63 53.1179C137.026 53.1179 136.522 53.3904 136.118 53.9353C135.714 54.4802 135.512 55.2214 135.512 56.1589V60.4656H133.473V51.4656H135.512V53.3201H135.547C135.746 52.6873 136.051 52.1951 136.461 51.8435C136.877 51.4861 137.34 51.3074 137.85 51.3074C138.219 51.3074 138.5 51.363 138.693 51.4744V53.408ZM147.597 56.5193H141.462C141.485 57.3513 141.74 57.9929 142.227 58.4441C142.719 58.8953 143.393 59.1208 144.248 59.1208C145.209 59.1208 146.091 58.8337 146.894 58.2595V59.9031C146.073 60.4187 144.989 60.6765 143.642 60.6765C142.317 60.6765 141.277 60.2693 140.521 59.4548C139.771 58.6345 139.396 57.4832 139.396 56.0007C139.396 54.6003 139.81 53.4607 140.636 52.5818C141.468 51.697 142.499 51.2546 143.729 51.2546C144.96 51.2546 145.912 51.6501 146.586 52.4412C147.26 53.2322 147.597 54.3308 147.597 55.7371V56.5193ZM145.628 55.0779C145.622 54.3455 145.449 53.7771 145.109 53.3728C144.77 52.9626 144.301 52.7576 143.703 52.7576C143.117 52.7576 142.619 52.9714 142.209 53.3992C141.805 53.8269 141.556 54.3865 141.462 55.0779H145.628ZM157.722 60.4656H155.683V58.9363H155.647C154.991 60.0964 153.98 60.6765 152.615 60.6765C151.508 60.6765 150.62 60.2751 149.952 59.4724C149.29 58.6638 148.959 57.5652 148.959 56.1765C148.959 54.6882 149.325 53.4958 150.058 52.5994C150.796 51.7029 151.777 51.2546 153.002 51.2546C154.215 51.2546 155.097 51.741 155.647 52.7136H155.683V47.1414H157.722V60.4656ZM155.709 56.3523V55.1746C155.709 54.5359 155.501 53.9939 155.085 53.5486C154.669 53.1033 154.139 52.8806 153.494 52.8806C152.732 52.8806 152.132 53.1648 151.692 53.7332C151.259 54.3015 151.042 55.0896 151.042 56.0974C151.042 57.0115 151.25 57.7351 151.666 58.2683C152.088 58.7957 152.653 59.0593 153.362 59.0593C154.06 59.0593 154.625 58.8044 155.059 58.2947C155.492 57.7791 155.709 57.1316 155.709 56.3523ZM167.416 59.1648H167.381V60.4656H165.342V47.1414H167.381V53.0476H167.416C168.113 51.8523 169.133 51.2546 170.475 51.2546C171.611 51.2546 172.499 51.6589 173.138 52.4675C173.782 53.2703 174.104 54.3484 174.104 55.7019C174.104 57.2078 173.744 58.4148 173.023 59.323C172.303 60.2253 171.318 60.6765 170.07 60.6765C168.898 60.6765 168.014 60.1726 167.416 59.1648ZM167.363 55.5876V56.7039C167.363 57.3601 167.571 57.9167 167.987 58.3738C168.409 58.8308 168.942 59.0593 169.587 59.0593C170.343 59.0593 170.935 58.7664 171.362 58.1804C171.796 57.5886 172.013 56.7654 172.013 55.7107C172.013 54.8259 171.811 54.1345 171.406 53.6365C171.008 53.1326 170.466 52.8806 169.78 52.8806C169.054 52.8806 168.468 53.1384 168.022 53.6541C167.583 54.1697 167.363 54.8142 167.363 55.5876ZM183.983 51.4656L179.923 61.907C179.079 63.7703 177.896 64.7019 176.372 64.7019C175.944 64.7019 175.587 64.6638 175.3 64.5876V62.8914C175.622 62.9968 175.915 63.0496 176.179 63.0496C176.94 63.0496 177.509 62.6746 177.884 61.9246L178.49 60.448L174.913 51.4656H177.172L179.316 58.0046C179.34 58.0867 179.393 58.3035 179.475 58.655H179.519C179.548 58.5203 179.601 58.3093 179.677 58.0222L181.927 51.4656H183.983Z" fill="black"/>
<path d="M105 0H97V34H105V0Z" fill="#132441"/>
<path d="M119.448 0H112V20.7727C112 30.2149 117.84 33.7401 125.034 33.9917C132.49 34.2525 139 28.3264 139 20.7727V0H131.552V20.7727C131.552 28.3264 119.448 28.3264 119.448 20.7727V0Z" fill="#132441"/>
<path d="M62 0H35.0024L35 5.9095H44.6444V34H52.358V5.66529H62V0Z" fill="#4D4D4D"/>
<path d="M92 0H65.0024L65 5.9095H74.6444V34H82.358V5.66529H92V0Z" fill="#4D4D4D"/>
<path d="M146 0V34H153.6V7.55556L161.2 34H168.8L176.4 7.55556V34H184V0H172.6L165 22.6667L157.4 0H146Z" fill="#132441"/>
<path fill-rule="evenodd" clip-rule="evenodd" d="M32.9936 16.522C33.2521 8.26111 25.6684 -0.00164616 16.4989 2.46001e-07C7.32951 -0.00161365 -0.000458411 8.67346 2.15024e-08 16.522C0.000458454 24.3705 7.72575 33.8639 16.4989 33.9986C25.4509 34.1361 32.7589 24.0219 32.9936 16.522ZM25.4555 16.522C25.4555 20.7697 21.448 26.2445 16.4989 26.2445C11.5499 26.2445 7.74274 20.6526 7.74274 16.522C7.74274 12.3913 10.9298 7.75407 16.4989 7.75407C22.0681 7.75407 25.4555 12.2743 25.4555 16.522Z" fill="#4D4D4D"/>
<path d="M16.3865 32.1021C15.7405 32.1021 13.1565 28.8654 14.2869 28.8646C15.4174 28.8638 17.3554 28.8646 18.486 28.8654C19.6166 28.8654 17.0325 32.1021 16.3865 32.1021Z" fill="white"/>
<path d="M30.563 17.1821C30.563 17.8281 27.6553 20.4121 27.6546 19.2817C27.6538 18.1512 27.6546 16.2132 27.6553 15.0826C27.6553 13.952 30.563 16.5361 30.563 17.1821Z" fill="white"/>
<path d="M16.385 1.49998C17.031 1.49999 19.615 4.73661 18.4846 4.73744C17.3541 4.73827 15.4161 4.73745 14.2855 4.73661C13.1549 4.73662 15.739 1.49998 16.385 1.49998Z" fill="white"/>
<path d="M1.66938 17.1841C1.66939 16.5381 4.57711 13.9541 4.57786 15.0845C4.5786 16.215 4.57787 18.153 4.57711 19.2836C4.57712 20.4142 1.66938 17.8301 1.66938 17.1841Z" fill="white"/>
</svg>
