<svg width="287" height="74" viewBox="0 0 287 74" fill="none" xmlns="http://www.w3.org/2000/svg">
<path d="M92.73 23.27H83.7432V49H76.624V23.27H67.6812V17.4912H92.73V23.27ZM122.27 23.27H113.283V49H106.164V23.27H97.2212V17.4912H122.27V23.27Z" fill="#4D4D4D"/>
<path d="M135.858 49H128.761V17.4912H135.858V49ZM170.979 35.355C170.979 44.8179 166.57 49.5493 157.751 49.5493C149.197 49.5493 144.919 44.9277 144.919 35.6846V17.4912H152.039V35.7725C152.039 40.8701 154.031 43.4189 158.015 43.4189C161.926 43.4189 163.882 40.958 163.882 36.0361V17.4912H170.979V35.355ZM216.01 49H209V30.1475C209 28.1113 209.088 25.8628 209.264 23.4019H209.088C208.722 25.3354 208.393 26.7271 208.1 27.5767L200.717 49H194.916L187.401 27.7964C187.196 27.2251 186.867 25.7603 186.413 23.4019H186.215C186.405 26.5073 186.5 29.2319 186.5 31.5757V49H180.106V17.4912H190.5L196.938 36.168C197.45 37.6621 197.824 39.1636 198.058 40.6724H198.19C198.585 38.9292 199.003 37.4131 199.442 36.124L205.88 17.4912H216.01V49Z" fill="#7E56C2"/>
<path fill-rule="evenodd" clip-rule="evenodd" d="M64.9874 32.4958C65.4965 16.2481 50.5589 -0.00323769 32.4979 4.83839e-07C14.4369 -0.00317376 -0.000902931 17.0591 4.23532e-08 32.4958C0.000903016 47.9324 15.2182 64.7278 32.4987 64.9928C50.1314 65.2631 64.5251 47.2468 64.9874 32.4958ZM48.7494 32.4958C48.449 40.62 42.2461 48.7445 32.4979 48.7445C22.7497 48.7445 16.2498 40.62 16.2498 32.4958C16.2498 24.3715 21.5292 16.2481 32.4987 16.2481C43.4682 16.2481 49.0498 24.3715 48.7494 32.4958Z" fill="#4D4D4D"/>
<path d="M32.2327 58.5078C31.4241 58.5078 28.1899 54.4568 29.6048 54.4557C31.0197 54.4547 33.4454 54.4557 34.8605 54.4568C36.2755 54.4568 33.0412 58.5078 32.2327 58.5078Z" fill="#D9D9D9"/>
<path d="M59.3242 32.58C59.3242 33.48 55.2732 37.0801 55.2721 35.5052C55.2711 33.9302 55.2721 31.2301 55.2732 29.655C55.2732 28.0798 59.3242 31.68 59.3242 32.58Z" fill="#D9D9D9"/>
<path d="M32.2439 5.69602C33.0524 5.69603 36.2867 9.74709 34.8718 9.74813C33.4569 9.74916 31.0312 9.74814 29.6161 9.74708C28.201 9.7471 31.4353 5.69602 32.2439 5.69602Z" fill="#D9D9D9"/>
<path d="M6.5117 32.5665C6.51171 31.6665 10.5628 28.0664 10.5638 29.6413C10.5648 31.2162 10.5638 33.9163 10.5628 35.4915C10.5628 37.0666 6.51169 33.4665 6.5117 32.5665Z" fill="#D9D9D9"/>
<path d="M42.5195 32.5C42.5195 38.0228 38.0424 42.5 32.5195 42.5C26.9967 42.5 22.5195 38.0228 22.5195 32.5C22.5195 26.9772 26.9967 22.5 32.5195 22.5C38.0424 22.5 42.5195 26.9772 42.5195 32.5Z" fill="#4D4D4D"/>
<path d="M210.316 67.1657L211.386 65.8513C211.84 65.2933 212.618 65.1294 213.23 65.4889C214.192 66.0497 215.222 66.3402 216.292 66.3402C217.22 66.3402 217.719 66.0095 217.719 65.4227C217.719 64.8907 217.308 64.5973 215.614 64.1918C212.955 63.5677 210.904 62.7969 210.904 60.1135C210.904 57.7263 212.742 55.9978 215.739 55.9978C217.861 55.9978 219.521 56.5845 220.877 57.7062L219.932 59.081C219.512 59.6936 218.724 59.892 218.065 59.5699C217.248 59.1673 216.414 58.9573 215.651 58.9573C214.811 58.9573 214.402 59.3254 214.402 59.8201C214.402 60.4068 214.831 60.6657 216.562 61.0683C219.433 61.7126 221.218 62.6675 221.218 65.1092C221.218 67.7351 219.203 69.2968 216.17 69.2968C213.957 69.2968 211.854 68.5807 210.319 67.1657" fill="#4D4D4D"/>
<path d="M222.395 63.319V55.9978H224.452C225.284 55.9978 225.96 56.692 225.96 57.5495V63.2432C225.96 65.1245 226.884 66.02 228.294 66.02C229.704 66.02 230.628 65.1624 230.628 63.3365V57.5495C230.628 56.692 231.304 55.9978 232.136 55.9978H234.193V63.2257C234.193 67.4346 231.859 69.281 228.259 69.281C224.659 69.281 222.397 67.3996 222.397 63.319" fill="#4D4D4D"/>
<path d="M238.964 55.9978H235.371V69.2801H238.964V55.9978Z" fill="#4D4D4D"/>
<path d="M243.887 59.2251H240.143V57.5802C240.143 56.7057 240.809 55.9978 241.629 55.9978H251.092V59.2281H247.348V67.7144C247.348 68.5889 246.681 69.2968 245.861 69.2968H243.887V59.2281V59.2251Z" fill="#303547"/>
<path d="M260.911 66.1617H255.691V64.0528H261.123L261.166 61.1467H255.691V59.1329H260.82C261.64 59.1329 262.306 58.425 262.306 57.5505V55.9978H252.268V69.2968H262.397V67.7441C262.397 66.8696 261.73 66.1617 260.911 66.1617Z" fill="#303547"/>
<path d="M263.574 67.1657L264.644 65.8513C265.098 65.2933 265.875 65.1294 266.488 65.4889C267.45 66.0497 268.48 66.3402 269.55 66.3402C270.478 66.3402 270.977 66.0095 270.977 65.4227C270.977 64.8907 270.566 64.5973 268.872 64.1918C266.213 63.5677 264.162 62.7969 264.162 60.1135C264.162 57.7263 266 55.9978 268.996 55.9978C271.119 55.9978 272.779 56.5845 274.135 57.7062L273.19 59.081C272.767 59.6936 271.981 59.892 271.323 59.5699C270.506 59.1673 269.672 58.9573 268.909 58.9573C268.069 58.9573 267.66 59.3254 267.66 59.8201C267.66 60.4068 268.089 60.6657 269.819 61.0683C272.691 61.7126 274.475 62.6674 274.475 65.1092C274.475 67.7351 272.461 69.2968 269.428 69.2968C267.215 69.2968 265.112 68.5807 263.577 67.1657" fill="#303547"/>
<path d="M279.397 59.2251H275.652V57.5802C275.652 56.7057 276.319 55.9978 277.139 55.9978H286.602V59.2281H282.858V67.7144C282.858 68.5889 282.191 69.2968 281.371 69.2968H279.397V59.2281V59.2251Z" fill="#303547"/>
<path d="M112.317 64.4275V68.9978H110.234V56.3943H114.058C115.505 56.3943 116.627 56.7312 117.424 57.405C118.221 58.0789 118.619 59.0281 118.619 60.2527C118.619 61.4773 118.203 62.4792 117.371 63.2585C116.539 64.0378 115.414 64.4275 113.996 64.4275H112.317ZM112.317 58.1169V62.7224H113.671C114.567 62.7224 115.25 62.5144 115.719 62.0984C116.188 61.6824 116.422 61.0964 116.422 60.3406C116.422 58.8582 115.561 58.1169 113.838 58.1169H112.317ZM123.91 69.2087C122.521 69.2087 121.411 68.7898 120.579 67.9519C119.753 67.1082 119.34 65.9919 119.34 64.6033C119.34 63.0916 119.771 61.9109 120.632 61.0613C121.499 60.2117 122.665 59.7869 124.13 59.7869C125.536 59.7869 126.632 60.2 127.417 61.0261C128.202 61.8523 128.595 62.9978 128.595 64.4626C128.595 65.8982 128.17 67.0496 127.32 67.9167C126.477 68.7781 125.34 69.2087 123.91 69.2087ZM124.007 61.4128C123.21 61.4128 122.58 61.6912 122.117 62.2478C121.654 62.8044 121.423 63.572 121.423 64.5505C121.423 65.4939 121.657 66.238 122.126 66.783C122.595 67.322 123.222 67.5916 124.007 67.5916C124.81 67.5916 125.425 67.325 125.853 66.7917C126.286 66.2585 126.503 65.4998 126.503 64.5154C126.503 63.5251 126.286 62.7605 125.853 62.2214C125.425 61.6824 124.81 61.4128 124.007 61.4128ZM142.78 59.9978L140.126 68.9978H137.99L136.355 62.8982C136.291 62.6638 136.25 62.4001 136.232 62.1072H136.197C136.186 62.3064 136.133 62.5642 136.039 62.8806L134.264 68.9978H132.172L129.526 59.9978H131.636L133.271 66.4841C133.323 66.6775 133.358 66.9353 133.376 67.2576H133.438C133.455 67.0115 133.502 66.7478 133.578 66.4666L135.397 59.9978H137.313L138.931 66.5105C138.983 66.7156 139.021 66.9734 139.045 67.2839H139.106C139.118 67.0671 139.162 66.8093 139.238 66.5105L140.838 59.9978H142.78ZM151.833 65.0515H145.698C145.722 65.8835 145.977 66.5251 146.463 66.9763C146.955 67.4275 147.629 67.6531 148.484 67.6531C149.445 67.6531 150.327 67.366 151.13 66.7917V68.4353C150.31 68.9509 149.226 69.2087 147.878 69.2087C146.554 69.2087 145.514 68.8015 144.758 67.9871C144.008 67.1667 143.633 66.0154 143.633 64.533C143.633 63.1326 144.046 61.9929 144.872 61.114C145.704 60.2292 146.735 59.7869 147.966 59.7869C149.196 59.7869 150.148 60.1824 150.822 60.9734C151.496 61.7644 151.833 62.863 151.833 64.2693V65.0515ZM149.864 63.6101C149.858 62.8777 149.686 62.3093 149.346 61.905C149.006 61.4949 148.537 61.2898 147.939 61.2898C147.354 61.2898 146.855 61.5037 146.445 61.9314C146.041 62.3591 145.792 62.9187 145.698 63.6101H149.864ZM158.996 61.9402C158.75 61.7468 158.396 61.6501 157.933 61.6501C157.329 61.6501 156.825 61.9226 156.421 62.4675C156.017 63.0125 155.814 63.7537 155.814 64.6912V68.9978H153.775V59.9978H155.814V61.8523H155.85C156.049 61.2195 156.354 60.7273 156.764 60.3757C157.18 60.0183 157.643 59.8396 158.152 59.8396C158.521 59.8396 158.803 59.8953 158.996 60.0066V61.9402ZM167.899 65.0515H161.765C161.788 65.8835 162.043 66.5251 162.529 66.9763C163.021 67.4275 163.695 67.6531 164.551 67.6531C165.512 67.6531 166.394 67.366 167.196 66.7917V68.4353C166.376 68.9509 165.292 69.2087 163.944 69.2087C162.62 69.2087 161.58 68.8015 160.824 67.9871C160.074 67.1667 159.699 66.0154 159.699 64.533C159.699 63.1326 160.112 61.9929 160.938 61.114C161.771 60.2292 162.802 59.7869 164.032 59.7869C165.263 59.7869 166.215 60.1824 166.889 60.9734C167.562 61.7644 167.899 62.863 167.899 64.2693V65.0515ZM165.931 63.6101C165.925 62.8777 165.752 62.3093 165.412 61.905C165.072 61.4949 164.604 61.2898 164.006 61.2898C163.42 61.2898 162.922 61.5037 162.512 61.9314C162.107 62.3591 161.858 62.9187 161.765 63.6101H165.931ZM178.024 68.9978H175.985V67.4685H175.95C175.294 68.6287 174.283 69.2087 172.918 69.2087C171.811 69.2087 170.923 68.8074 170.255 68.0046C169.593 67.196 169.262 66.0974 169.262 64.7087C169.262 63.2205 169.628 62.0281 170.36 61.1316C171.099 60.2351 172.08 59.7869 173.305 59.7869C174.518 59.7869 175.399 60.2732 175.95 61.2458H175.985V55.6736H178.024V68.9978ZM176.012 64.8845V63.7068C176.012 63.0681 175.804 62.5261 175.388 62.0808C174.972 61.6355 174.441 61.4128 173.797 61.4128C173.035 61.4128 172.435 61.697 171.995 62.2654C171.562 62.8337 171.345 63.6218 171.345 64.6296C171.345 65.5437 171.553 66.2673 171.969 66.8005C172.391 67.3279 172.956 67.5916 173.665 67.5916C174.362 67.5916 174.928 67.3367 175.361 66.8269C175.795 66.3113 176.012 65.6638 176.012 64.8845ZM187.719 67.697H187.684V68.9978H185.645V55.6736H187.684V61.5798H187.719C188.416 60.3845 189.436 59.7869 190.777 59.7869C191.914 59.7869 192.802 60.1912 193.44 60.9998C194.085 61.8025 194.407 62.8806 194.407 64.2341C194.407 65.74 194.047 66.947 193.326 67.8552C192.605 68.7576 191.621 69.2087 190.373 69.2087C189.201 69.2087 188.316 68.7048 187.719 67.697ZM187.666 64.1199V65.2361C187.666 65.8923 187.874 66.449 188.29 66.906C188.712 67.363 189.245 67.5916 189.89 67.5916C190.646 67.5916 191.237 67.2986 191.665 66.7126C192.099 66.1208 192.315 65.2976 192.315 64.2429C192.315 63.3582 192.113 62.6667 191.709 62.1687C191.311 61.6648 190.769 61.4128 190.083 61.4128C189.356 61.4128 188.771 61.6707 188.325 62.1863C187.886 62.7019 187.666 63.3464 187.666 64.1199ZM204.286 59.9978L200.226 70.4392C199.382 72.3025 198.198 73.2341 196.675 73.2341C196.247 73.2341 195.89 73.196 195.603 73.1199V71.4236C195.925 71.5291 196.218 71.5818 196.481 71.5818C197.243 71.5818 197.812 71.2068 198.187 70.4568L198.793 68.9802L195.216 59.9978H197.475L199.619 66.5369C199.643 66.6189 199.695 66.8357 199.777 67.1873H199.821C199.851 67.0525 199.903 66.8416 199.979 66.5544L202.229 59.9978H204.286Z" fill="black"/>
</svg>
