<svg width="120" height="22" viewBox="0 0 120 22" fill="none" xmlns="http://www.w3.org/2000/svg">
<path d="M68.2227 0H63.3496V21.928H68.2227V0Z" fill="#132441"/>
<path d="M77.9688 0H73.0957V13.4004C73.0957 19.4915 76.9166 21.7657 81.6236 21.928C86.5017 22.0962 90.7607 18.2733 90.7607 13.4004V0H85.8876V13.4004C85.8876 18.2733 77.9688 18.2733 77.9688 13.4004V0Z" fill="#132441"/>
<path d="M40.2038 0H23.148L23.1465 3.81221H29.2394V21.9333H34.1125V3.65466H40.2038V0Z" fill="#4D4D4D"/>
<path d="M59.698 0H42.6421L42.6406 3.81221H48.7335V21.9333H53.6066V3.65466H59.698V0Z" fill="#4D4D4D"/>
<path d="M95.6348 0V21.928H100.508V4.87289L105.381 21.928H110.254L115.127 4.87289V21.928H120V0H112.691L107.817 14.6187L102.944 0H95.6348Z" fill="#132441"/>
<path fill-rule="evenodd" clip-rule="evenodd" d="M21.317 10.6587C21.484 5.32944 16.5842 -0.00106198 10.6599 1.58701e-07C4.73557 -0.00104101 -0.000296178 5.59546 1.38926e-08 10.6587C0.000296206 15.722 4.99157 21.8464 10.6599 21.9333C16.4437 22.022 21.1654 15.4971 21.317 10.6587ZM16.4467 10.6587C16.4467 13.399 13.8575 16.931 10.6599 16.931C7.46232 16.931 5.00255 13.3235 5.00255 10.6587C5.00255 7.99396 7.0617 5.00234 10.6599 5.00234C14.2581 5.00234 16.4467 7.91844 16.4467 10.6587Z" fill="#4D4D4D"/>
<path d="M10.7759 20.7269C10.3584 20.7269 8.68868 18.6355 9.41914 18.635C10.1496 18.6344 11.4019 18.635 12.1325 18.6355C12.8631 18.6355 11.1933 20.7269 10.7759 20.7269Z" fill="white"/>
<path d="M20.0069 11.1584C20.0069 11.5758 18.1279 13.2455 18.1275 12.5151C18.127 11.7846 18.1274 10.5323 18.1279 9.80181C18.1279 9.07128 20.0069 10.741 20.0069 11.1584Z" fill="white"/>
<path d="M10.7749 1.10152C11.1924 1.10152 12.8621 3.19287 12.1316 3.19341C11.4012 3.19394 10.1488 3.19341 9.41828 3.19287C8.68771 3.19287 10.3575 1.10151 10.7749 1.10152Z" fill="white"/>
<path d="M1.19432 11.1597C1.19432 10.7423 3.07323 9.07261 3.07372 9.80305C3.0742 10.5335 3.07372 11.7858 3.07323 12.5163C3.07324 13.2468 1.19431 11.5771 1.19432 11.1597Z" fill="white"/>
</svg>
