<svg width="127" height="40" viewBox="0 0 127 40" fill="none" xmlns="http://www.w3.org/2000/svg">
<path fill-rule="evenodd" clip-rule="evenodd" d="M39.9922 19.9974C40.3056 9.99883 31.1132 -0.00199243 19.9987 2.97747e-07C8.88426 -0.00195308 -0.00055565 10.4979 2.60635e-08 19.9974C0.000555702 29.4969 9.36506 39.8325 19.9992 39.9955C30.8501 40.1619 39.7077 29.075 39.9922 19.9974ZM29.9996 19.9974C29.8148 24.9969 25.9976 29.9966 19.9987 29.9966C13.9998 29.9966 9.99988 24.9969 9.99988 19.9974C9.99988 14.9979 13.2488 9.99883 19.9992 9.99883C26.7497 9.99883 30.1845 14.9979 29.9996 19.9974Z" fill="white"/>
<path d="M19.8359 36.0048C19.3384 36.0048 17.3481 33.5118 18.2188 33.5112C19.0895 33.5105 20.5822 33.5112 21.453 33.5118C22.3239 33.5118 20.3335 36.0048 19.8359 36.0048Z" fill="#7E56C2"/>
<path d="M36.5072 20.0492C36.5072 20.6031 34.0143 22.8185 34.0136 21.8493C34.013 20.8801 34.0136 19.2185 34.0143 18.2492C34.0143 17.2799 36.5072 19.4954 36.5072 20.0492Z" fill="#7E56C2"/>
<path d="M19.8418 3.50523C20.3394 3.50523 22.3297 5.99819 21.459 5.99883C20.5883 5.99947 19.0955 5.99884 18.2247 5.99819C17.3539 5.99819 19.3442 3.50522 19.8418 3.50523Z" fill="#7E56C2"/>
<path d="M4.0084 20.0409C4.00841 19.487 6.50136 17.2716 6.502 18.2408C6.50264 19.2099 6.50201 20.8715 6.50136 21.8409C6.50137 22.8102 4.0084 20.5947 4.0084 20.0409Z" fill="#7E56C2"/>
<path d="M26.1651 20C26.1651 23.3987 23.4099 26.1539 20.0113 26.1539C16.6126 26.1539 13.8574 23.3987 13.8574 20C13.8574 16.6014 16.6126 13.8462 20.0113 13.8462C23.4099 13.8462 26.1651 16.6014 26.1651 20Z" fill="white"/>
<path d="M56.2944 14.2043H51.3018V28.4988H47.3467V14.2043H42.3784V10.9939H56.2944V14.2043ZM72.7056 14.2043H67.7129V28.4988H63.7578V14.2043H58.7896V10.9939H72.7056V14.2043ZM80.2544 28.4988H76.3115V10.9939H80.2544V28.4988ZM99.7661 20.9182C99.7661 26.1754 97.3166 28.804 92.4175 28.804C87.6649 28.804 85.2886 26.2364 85.2886 21.1013V10.9939H89.2437V21.1501C89.2437 23.9822 90.3504 25.3982 92.564 25.3982C94.7368 25.3982 95.8232 24.031 95.8232 21.2966V10.9939H99.7661V20.9182ZM124.783 28.4988H120.889V18.0251C120.889 16.894 120.938 15.6448 121.036 14.2776H120.938C120.735 15.3518 120.551 16.1249 120.389 16.5969L116.287 28.4988H113.064L108.89 16.719C108.776 16.4016 108.593 15.5878 108.34 14.2776H108.23C108.336 16.0028 108.389 17.5165 108.389 18.8186V28.4988H104.837V10.9939H110.611L114.188 21.3699C114.472 22.2 114.68 23.0341 114.81 23.8723H114.883C115.103 22.9039 115.335 22.0616 115.579 21.3455L119.156 10.9939H124.783V28.4988Z" fill="white"/>
</svg>
